<svg width="40" height="40" viewBox="0 0 40 40" fill="none" xmlns="http://www.w3.org/2000/svg">
<circle cx="20" cy="20" r="20" fill="black"/>
<g clip-path="url(#clip0_1_13)">
<path d="M27.8265 20.8476C27.8265 20.4525 27.5061 20.132 27.1107 20.132C26.7154 20.132 26.395 20.4525 26.395 20.8476C26.395 24.3486 23.547 27.1966 20.046 27.1966C16.5452 27.1966 13.6971 24.3486 13.6971 20.8476C13.6971 20.4525 13.3767 20.132 12.9814 20.132C12.5861 20.132 12.2656 20.4525 12.2656 20.8476C12.2656 24.8966 15.3744 28.2323 19.3302 28.5948V30.5217H16.6741C16.2788 30.5217 15.9583 30.8421 15.9583 31.2374C15.9583 31.6327 16.2788 31.9532 16.6741 31.9532H23.4181C23.8132 31.9532 24.1336 31.6327 24.1336 31.2374C24.1336 30.8421 23.8132 30.5217 23.4181 30.5217H20.7617V28.5948C24.7177 28.2325 27.8265 24.8966 27.8265 20.8476Z" fill="white"/>
<path d="M20.046 25.4306C22.573 25.4306 24.6289 23.3747 24.6289 20.8476V12.5359C24.6289 10.009 22.573 7.95312 20.046 7.95312C17.5191 7.95312 15.4632 10.009 15.4632 12.5359V20.8476C15.4632 23.3747 17.5191 25.4306 20.046 25.4306ZM16.8945 12.5359C16.8945 10.7982 18.3083 9.38465 20.046 9.38465C21.7836 9.38465 23.1974 10.7982 23.1974 12.5359V20.8476C23.1974 22.5853 21.7836 23.9991 20.046 23.9991C18.3083 23.9991 16.8945 22.5853 16.8945 20.8476V12.5359Z" fill="white"/>
</g>
<defs>
<clipPath id="clip0_1_13">
<rect width="24" height="24" fill="white" transform="translate(8 8)"/>
</clipPath>
</defs>
</svg>
