<svg width="50" height="50" viewBox="0 0 50 50" fill="none" xmlns="http://www.w3.org/2000/svg">
<circle cx="25" cy="25" r="25" fill="black"/>
<path d="M18.694 32V16.49H25.47C27.098 16.49 28.3593 16.8493 29.254 17.568C30.1487 18.272 30.596 19.2547 30.596 20.516C30.596 21.4547 30.3247 22.2467 29.782 22.892C29.2393 23.5373 28.4987 23.97 27.56 24.19V23.86C28.2787 23.9627 28.8947 24.1827 29.408 24.52C29.9213 24.8573 30.31 25.29 30.574 25.818C30.8527 26.346 30.992 26.962 30.992 27.666C30.992 28.5753 30.7793 29.36 30.354 30.02C29.9433 30.6653 29.342 31.1567 28.55 31.494C27.758 31.8313 26.812 32 25.712 32H18.694ZM21.4 29.866H25.36C25.756 29.866 26.108 29.8367 26.416 29.778C26.7387 29.7193 27.01 29.6313 27.23 29.514C27.4647 29.382 27.6553 29.2207 27.802 29.03C27.9633 28.8393 28.0807 28.6193 28.154 28.37C28.2273 28.1207 28.264 27.842 28.264 27.534C28.264 27.2113 28.2273 26.9253 28.154 26.676C28.0807 26.4267 27.9633 26.214 27.802 26.038C27.6553 25.8473 27.4647 25.6933 27.23 25.576C27.01 25.444 26.7387 25.3487 26.416 25.29C26.108 25.2313 25.756 25.202 25.36 25.202H21.4V29.866ZM21.4 23.068H24.986C25.954 23.068 26.6727 22.8847 27.142 22.518C27.626 22.1367 27.868 21.5793 27.868 20.846C27.868 20.1127 27.626 19.5627 27.142 19.196C26.6727 18.8147 25.954 18.624 24.986 18.624H21.4V23.068Z" fill="white"/>
</svg>
