<svg width="40" height="40" viewBox="0 0 40 40" fill="none" xmlns="http://www.w3.org/2000/svg">
<circle cx="20" cy="20" r="20" fill="black"/>
<path d="M30 17.25C29.8019 17.2526 29.6126 17.3324 29.4725 17.4725C29.3324 17.6126 29.2526 17.8019 29.25 18V24L25.07 19.22C24.8044 18.9373 24.4837 18.7119 24.1277 18.5579C23.7717 18.4039 23.3879 18.3244 23 18.3244C22.6121 18.3244 22.2283 18.4039 21.8723 18.5579C21.5163 18.7119 21.1956 18.9373 20.93 19.22L18.06 22.5L17.12 21.36C16.861 21.0493 16.5368 20.7993 16.1705 20.6277C15.8041 20.4562 15.4045 20.3673 15 20.3673C14.5955 20.3673 14.1959 20.4562 13.8295 20.6277C13.4632 20.7993 13.139 21.0493 12.88 21.36L10.75 23.93V14C10.7526 13.1389 11.0959 12.3137 11.7048 11.7048C12.3137 11.0959 13.1389 10.7526 14 10.75H22C22.1989 10.75 22.3897 10.671 22.5303 10.5303C22.671 10.3897 22.75 10.1989 22.75 10C22.75 9.80109 22.671 9.61032 22.5303 9.46967C22.3897 9.32902 22.1989 9.25 22 9.25H14C12.7402 9.25 11.532 9.75044 10.6412 10.6412C9.75045 11.532 9.25 12.7402 9.25 14V26C9.24528 26.0163 9.24528 26.0337 9.25 26.05C9.26317 27.3011 9.76943 28.4965 10.6588 29.3765C11.5482 30.2565 12.7488 30.7501 14 30.75H26C27.246 30.7475 28.4412 30.2555 29.3278 29.3801C30.2145 28.5047 30.7216 27.3159 30.74 26.07V18C30.7375 17.8036 30.659 17.6158 30.5211 17.476C30.3831 17.3361 30.1964 17.2552 30 17.25ZM26 29.25H14C13.1831 29.2474 12.3972 28.9373 11.7986 28.3813C11.2001 27.8254 10.8328 27.0645 10.77 26.25L14 22.32C14.121 22.1852 14.269 22.0774 14.4344 22.0036C14.5998 21.9298 14.7789 21.8917 14.96 21.8917C15.1411 21.8917 15.3202 21.9298 15.4856 22.0036C15.651 22.0774 15.799 22.1852 15.92 22.32L17.43 24.14C17.4993 24.2242 17.5863 24.2921 17.6848 24.3388C17.7833 24.3854 17.891 24.4098 18 24.41C18.2159 24.3981 18.4194 24.3053 18.57 24.15L22.01 20.21C22.1324 20.0811 22.2797 19.9785 22.443 19.9083C22.6064 19.8382 22.7823 19.802 22.96 19.802C23.1377 19.802 23.3136 19.8382 23.477 19.9083C23.6403 19.9785 23.7876 20.0811 23.91 20.21L29.18 26.21C29.1298 27.0239 28.7745 27.789 28.185 28.3524C27.5956 28.9159 26.8153 29.2364 26 29.25Z" fill="white"/>
<path d="M12.25 15C12.25 15.5439 12.4113 16.0756 12.7135 16.5278C13.0156 16.9801 13.4451 17.3325 13.9476 17.5407C14.4501 17.7488 15.0031 17.8033 15.5365 17.6972C16.0699 17.5911 16.5599 17.3291 16.9445 16.9445C17.3291 16.5599 17.5911 16.0699 17.6972 15.5365C17.8033 15.0031 17.7488 14.4501 17.5407 13.9476C17.3325 13.4451 16.9801 13.0156 16.5278 12.7135C16.0756 12.4113 15.5439 12.25 15 12.25C14.2707 12.25 13.5712 12.5397 13.0555 13.0555C12.5397 13.5712 12.25 14.2707 12.25 15ZM16.25 15C16.25 15.2472 16.1767 15.4889 16.0393 15.6945C15.902 15.9 15.7068 16.0602 15.4784 16.1548C15.2499 16.2495 14.9986 16.2742 14.7561 16.226C14.5137 16.1778 14.2909 16.0587 14.1161 15.8839C13.9413 15.7091 13.8222 15.4863 13.774 15.2439C13.7258 15.0014 13.7505 14.7501 13.8452 14.5216C13.9398 14.2932 14.1 14.098 14.3055 13.9607C14.5111 13.8233 14.7528 13.75 15 13.75C15.3315 13.75 15.6495 13.8817 15.8839 14.1161C16.1183 14.3505 16.25 14.6685 16.25 15Z" fill="white"/>
<path d="M24 13.75H26.25V16C26.25 16.1989 26.329 16.3897 26.4697 16.5303C26.6103 16.671 26.8011 16.75 27 16.75C27.1989 16.75 27.3897 16.671 27.5303 16.5303C27.671 16.3897 27.75 16.1989 27.75 16V13.75H30C30.1989 13.75 30.3897 13.671 30.5303 13.5303C30.671 13.3897 30.75 13.1989 30.75 13C30.75 12.8011 30.671 12.6103 30.5303 12.4697C30.3897 12.329 30.1989 12.25 30 12.25H27.75V10C27.75 9.80109 27.671 9.61032 27.5303 9.46967C27.3897 9.32902 27.1989 9.25 27 9.25C26.8011 9.25 26.6103 9.32902 26.4697 9.46967C26.329 9.61032 26.25 9.80109 26.25 10V12.25H24C23.8011 12.25 23.6103 12.329 23.4697 12.4697C23.329 12.6103 23.25 12.8011 23.25 13C23.25 13.1989 23.329 13.3897 23.4697 13.5303C23.6103 13.671 23.8011 13.75 24 13.75Z" fill="white"/>
</svg>
