<svg width="40" height="40" viewBox="0 0 40 40" fill="none" xmlns="http://www.w3.org/2000/svg">
<circle cx="20" cy="20" r="20" fill="black"/>
<path d="M11 13.9C11 13.0716 11.6716 12.4 12.5 12.4H27.5C28.3284 12.4 29 13.0716 29 13.9C29 14.7284 28.3284 15.4 27.5 15.4H12.5C11.6716 15.4 11 14.7284 11 13.9Z" fill="white"/>
<path d="M11 19.9C11 19.0716 11.6716 18.4 12.5 18.4H21.5C22.3284 18.4 23 19.0716 23 19.9C23 20.7284 22.3284 21.4 21.5 21.4H12.5C11.6716 21.4 11 20.7284 11 19.9Z" fill="white"/>
<path d="M11 25.9C11 25.0716 11.6716 24.4 12.5 24.4H27.5C28.3284 24.4 29 25.0716 29 25.9C29 26.7284 28.3284 27.4 27.5 27.4H12.5C11.6716 27.4 11 26.7284 11 25.9Z" fill="white"/>
</svg>
